{
	"asset":{
		"generator":"Khronos glTF Blender I/O v4.0.44",
		"version":"2.0"
	},
	"scene":0,
	"scenes":[
		{
			"name":"Scene",
			"nodes":[
				6
			]
		}
	],
	"nodes":[
		{
			"mesh":0,
			"name":"Object_2"
		},
		{
			"mesh":1,
			"name":"Object_3"
		},
		{
			"mesh":2,
			"name":"Object_4"
		},
		{
			"mesh":3,
			"name":"Object_5"
		},
		{
			"mesh":4,
			"name":"Object_6"
		},
		{
			"children":[
				0,
				1,
				2,
				3,
				4
			],
			"name":"1796_4KP.obj.cleaner.materialmerger.gles"
		},
		{
			"children":[
				5
			],
			"name":"Sketchfab_model",
			"rotation":[
				0.00013098778435960412,
				0.0012574264546856284,
				-0.0004901042557321489,
				1
			],
			"scale":[
				0.021469444036483765,
				0.021469444036483765,
				0.021469444036483765
			],
			"translation":[
				0,
				-0.004979434423148632,
				0.0019701234996318817
			]
		}
	],
	"materials":[
		{
			"doubleSided":true,
			"name":"1796_4KP",
			"normalTexture":{
				"index":0
			},
			"pbrMetallicRoughness":{
				"baseColorTexture":{
					"index":1
				},
				"metallicRoughnessTexture":{
					"index":2
				},
				"roughnessFactor":0.8894153237342834
			}
		}
	],
	"meshes":[
		{
			"name":"Object_0",
			"primitives":[
				{
					"attributes":{
						"POSITION":0,
						"NORMAL":1,
						"TEXCOORD_0":2
					},
					"indices":3,
					"material":0
				}
			]
		},
		{
			"name":"Object_1",
			"primitives":[
				{
					"attributes":{
						"POSITION":4,
						"NORMAL":5,
						"TEXCOORD_0":6
					},
					"indices":7,
					"material":0
				}
			]
		},
		{
			"name":"Object_2",
			"primitives":[
				{
					"attributes":{
						"POSITION":8,
						"NORMAL":9,
						"TEXCOORD_0":10
					},
					"indices":11,
					"material":0
				}
			]
		},
		{
			"name":"Object_3",
			"primitives":[
				{
					"attributes":{
						"POSITION":12,
						"NORMAL":13,
						"TEXCOORD_0":14
					},
					"indices":15,
					"material":0
				}
			]
		},
		{
			"name":"Object_4",
			"primitives":[
				{
					"attributes":{
						"POSITION":16,
						"NORMAL":17,
						"TEXCOORD_0":18
					},
					"indices":19,
					"material":0
				}
			]
		}
	],
	"textures":[
		{
			"sampler":0,
			"source":0
		},
		{
			"sampler":0,
			"source":1
		},
		{
			"sampler":0,
			"source":2
		}
	],
	"images":[
		{
			"mimeType":"image/png",
			"name":"1796_4KP_normal",
			"uri":"1796_4KP_normal.png"
		},
		{
			"mimeType":"image/jpeg",
			"name":"1796_4KP_baseColor",
			"uri":"1796_4KP_baseColor.jpg"
		},
		{
			"mimeType":"image/png",
			"name":"1796_4KP_metallicRoughness",
			"uri":"1796_4KP_metallicRoughness.png"
		}
	],
	"accessors":[
		{
			"bufferView":0,
			"componentType":5126,
			"count":65831,
			"max":[
				49.390228271484375,
				43.865081787109375,
				2.915544033050537
			],
			"min":[
				-49.63667297363281,
				-49.33945846557617,
				-2.9724090099334717
			],
			"type":"VEC3"
		},
		{
			"bufferView":1,
			"componentType":5126,
			"count":65831,
			"type":"VEC3"
		},
		{
			"bufferView":2,
			"componentType":5126,
			"count":65831,
			"type":"VEC2"
		},
		{
			"bufferView":3,
			"componentType":5125,
			"count":329958,
			"type":"SCALAR"
		},
		{
			"bufferView":4,
			"componentType":5126,
			"count":65696,
			"max":[
				49.390228271484375,
				11.495979309082031,
				2.9175050258636475
			],
			"min":[
				-49.94298553466797,
				-37.12371063232422,
				-2.9228620529174805
			],
			"type":"VEC3"
		},
		{
			"bufferView":5,
			"componentType":5126,
			"count":65696,
			"type":"VEC3"
		},
		{
			"bufferView":6,
			"componentType":5126,
			"count":65696,
			"type":"VEC2"
		},
		{
			"bufferView":7,
			"componentType":5125,
			"count":317127,
			"type":"SCALAR"
		},
		{
			"bufferView":8,
			"componentType":5126,
			"count":66706,
			"max":[
				49.840232849121094,
				47.01487350463867,
				2.8673479557037354
			],
			"min":[
				-49.935150146484375,
				-12.592162132263184,
				-2.9507009983062744
			],
			"type":"VEC3"
		},
		{
			"bufferView":9,
			"componentType":5126,
			"count":66706,
			"type":"VEC3"
		},
		{
			"bufferView":10,
			"componentType":5126,
			"count":66706,
			"type":"VEC2"
		},
		{
			"bufferView":11,
			"componentType":5125,
			"count":328557,
			"type":"SCALAR"
		},
		{
			"bufferView":12,
			"componentType":5126,
			"count":66329,
			"max":[
				49.840232849121094,
				49.47769546508789,
				2.854741096496582
			],
			"min":[
				-49.85680389404297,
				-7.719232082366943,
				-2.8800690174102783
			],
			"type":"VEC3"
		},
		{
			"bufferView":13,
			"componentType":5126,
			"count":66329,
			"type":"VEC3"
		},
		{
			"bufferView":14,
			"componentType":5126,
			"count":66329,
			"type":"VEC2"
		},
		{
			"bufferView":15,
			"componentType":5125,
			"count":303849,
			"type":"SCALAR"
		},
		{
			"bufferView":16,
			"componentType":5126,
			"count":5978,
			"max":[
				49.78889465332031,
				0.15577499568462372,
				2.8149869441986084
			],
			"min":[
				-49.819091796875,
				-8.345840454101562,
				-2.846082925796509
			],
			"type":"VEC3"
		},
		{
			"bufferView":17,
			"componentType":5126,
			"count":5978,
			"type":"VEC3"
		},
		{
			"bufferView":18,
			"componentType":5126,
			"count":5978,
			"type":"VEC2"
		},
		{
			"bufferView":19,
			"componentType":5123,
			"count":17091,
			"type":"SCALAR"
		}
	],
	"bufferViews":[
		{
			"buffer":0,
			"byteLength":789972,
			"byteOffset":0,
			"target":34962
		},
		{
			"buffer":0,
			"byteLength":789972,
			"byteOffset":789972,
			"target":34962
		},
		{
			"buffer":0,
			"byteLength":526648,
			"byteOffset":1579944,
			"target":34962
		},
		{
			"buffer":0,
			"byteLength":1319832,
			"byteOffset":2106592,
			"target":34963
		},
		{
			"buffer":0,
			"byteLength":788352,
			"byteOffset":3426424,
			"target":34962
		},
		{
			"buffer":0,
			"byteLength":788352,
			"byteOffset":4214776,
			"target":34962
		},
		{
			"buffer":0,
			"byteLength":525568,
			"byteOffset":5003128,
			"target":34962
		},
		{
			"buffer":0,
			"byteLength":1268508,
			"byteOffset":5528696,
			"target":34963
		},
		{
			"buffer":0,
			"byteLength":800472,
			"byteOffset":6797204,
			"target":34962
		},
		{
			"buffer":0,
			"byteLength":800472,
			"byteOffset":7597676,
			"target":34962
		},
		{
			"buffer":0,
			"byteLength":533648,
			"byteOffset":8398148,
			"target":34962
		},
		{
			"buffer":0,
			"byteLength":1314228,
			"byteOffset":8931796,
			"target":34963
		},
		{
			"buffer":0,
			"byteLength":795948,
			"byteOffset":10246024,
			"target":34962
		},
		{
			"buffer":0,
			"byteLength":795948,
			"byteOffset":11041972,
			"target":34962
		},
		{
			"buffer":0,
			"byteLength":530632,
			"byteOffset":11837920,
			"target":34962
		},
		{
			"buffer":0,
			"byteLength":1215396,
			"byteOffset":12368552,
			"target":34963
		},
		{
			"buffer":0,
			"byteLength":71736,
			"byteOffset":13583948,
			"target":34962
		},
		{
			"buffer":0,
			"byteLength":71736,
			"byteOffset":13655684,
			"target":34962
		},
		{
			"buffer":0,
			"byteLength":47824,
			"byteOffset":13727420,
			"target":34962
		},
		{
			"buffer":0,
			"byteLength":34182,
			"byteOffset":13775244,
			"target":34963
		}
	],
	"samplers":[
		{
			"magFilter":9729,
			"minFilter":9987
		}
	],
	"buffers":[
		{
			"byteLength":13809428,
			"uri":"scene.bin"
		}
	]
}
