{
	"asset":{
		"generator":"Khronos glTF Blender I/O v4.0.44",
		"version":"2.0"
	},
	"scene":0,
	"scenes":[
		{
			"name":"Scene",
			"nodes":[
				3,
				4
			]
		}
	],
	"nodes":[
		{
			"mesh":0,
			"name":"defaultMaterial"
		},
		{
			"children":[
				0
			],
			"name":"g"
		},
		{
			"children":[
				1
			],
			"name":"Collada visual scene group",
			"rotation":[
				0.70710688829422,
				0,
				0,
				0.7071066498756409
			]
		},
		{
			"children":[
				2
			],
			"name":"Sketchfab_model",
			"rotation":[
				-0.70710688829422,
				0,
				0,
				0.7071066498756409
			]
		},
		{
			"name":"\u041f\u0443\u0441\u0442\u044b\u0448\u043a\u0430",
			"rotation":[
				-0.5,
				-0.5,
				-0.5,
				0.5
			],
			"scale":[
				-1.0736995935440063,
				-18.28045082092285,
				-1.0736995935440063
			],
			"translation":[
				-0.003508654423058033,
				0.5296147465705872,
				0.09058280289173126
			]
		}
	],
	"materials":[
		{
			"doubleSided":true,
			"name":"initialShadingGroup",
			"normalTexture":{
				"index":0
			},
			"occlusionTexture":{
				"index":1
			},
			"pbrMetallicRoughness":{
				"baseColorTexture":{
					"index":2
				},
				"metallicRoughnessTexture":{
					"index":1
				}
			}
		}
	],
	"meshes":[
		{
			"name":"defaultMaterial",
			"primitives":[
				{
					"attributes":{
						"POSITION":0,
						"NORMAL":1,
						"TEXCOORD_0":2
					},
					"indices":3,
					"material":0
				}
			]
		}
	],
	"textures":[
		{
			"sampler":0,
			"source":0
		},
		{
			"sampler":0,
			"source":1
		},
		{
			"sampler":0,
			"source":2
		}
	],
	"images":[
		{
			"mimeType":"image/png",
			"name":"initialShadingGroup_normal",
			"uri":"texture/initialShadingGroup_normal.png"
		},
		{
			"mimeType":"image/png",
			"name":"initialShadingGroup_metallicRoughness",
			"uri":"texture/initialShadingGroup_metallicRoughness.png"
		},
		{
			"mimeType":"image/jpeg",
			"name":"initialShadingGroup_baseColor",
			"uri":"texture/initialShadingGroup_baseColor.jpg"
		}
	],
	"accessors":[
		{
			"bufferView":0,
			"componentType":5126,
			"count":1435,
			"max":[
				0.05819600075483322,
				1,
				0.8330109715461731
			],
			"min":[
				-0.05819600075483322,
				-1,
				-0.8330109715461731
			],
			"type":"VEC3"
		},
		{
			"bufferView":1,
			"componentType":5126,
			"count":1435,
			"type":"VEC3"
		},
		{
			"bufferView":2,
			"componentType":5126,
			"count":1435,
			"type":"VEC2"
		},
		{
			"bufferView":3,
			"componentType":5123,
			"count":3348,
			"type":"SCALAR"
		}
	],
	"bufferViews":[
		{
			"buffer":0,
			"byteLength":17220,
			"byteOffset":0,
			"target":34962
		},
		{
			"buffer":0,
			"byteLength":17220,
			"byteOffset":17220,
			"target":34962
		},
		{
			"buffer":0,
			"byteLength":11480,
			"byteOffset":34440,
			"target":34962
		},
		{
			"buffer":0,
			"byteLength":6696,
			"byteOffset":45920,
			"target":34963
		}
	],
	"samplers":[
		{
			"magFilter":9729,
			"minFilter":9987
		}
	],
	"buffers":[
		{
			"byteLength":52616,
			"uri":"scene.bin"
		}
	]
}
